<?xml version="1.0" encoding="utf-8"?>
<svg version="1.0" width="440.000000pt" height="90.000000pt" viewBox="0 0 96.585 90" preserveAspectRatio="xMidYMid meet" xmlns="http://www.w3.org/2000/svg">
  <g transform="translate(0.000000,90.000000) scale(0.100000,-0.100000)" fill="#000000" stroke="none">
    <path d="M338 885 c-82 -22 -141 -57 -203 -119 -260 -262 -117 -697 249 -758 243 -40 484 143 512 390 l7 62 -41 0 c-41 0 -102 38 -102 63 -1 31 -16 38 -49 24 -42 -18 -76 -11 -101 21 -27 33 -25 75 4 109 l24 28 -30 34 c-28 32 -30 39 -25 87 l5 53 -49 10 c-64 14 -142 13 -201 -4z m172 -87 c0 -18 7 -46 15 -62 13 -24 13 -36 4 -64 -33 -100 36 -202 137 -202 31 0 46 -6 65 -26 13 -15 39 -33 58 -41 31 -13 33 -16 26 -51 -11 -58 -55 -130 -112 -182 -188 -172 -491 -107 -602 129 -22 48 -26 69 -26 151 0 82 4 103 27 152 65 139 196 226 346 227 l62 1 0 -32z" style="fill: rgb(158, 163, 168);"/>
    <path d="M350 697 c-62 -31 -40 -122 30 -122 69 0 91 88 29 120 -33 18 -28 18 -59 2z" style="fill: rgb(158, 163, 168);"/>
    <path d="M184 426 c-15 -24 -15 -28 0 -52 24 -36 76 -31 90 9 13 37 -2 61 -42 65 -24 2 -34 -3 -48 -22z" style="fill: rgb(158, 163, 168);"/>
    <path d="M405 440 c-8 -13 3 -30 20 -30 14 0 27 24 18 34 -10 9 -31 7 -38 -4z" style="fill: rgb(158, 163, 168);"/>
    <path d="M487 352 c-30 -33 -11 -92 29 -92 51 0 73 60 36 93 -24 22 -45 21 -65 -1z" style="fill: rgb(158, 163, 168);"/>
    <path d="M297 223 c-3 -5 -2 -15 3 -22 10 -17 43 -6 38 12 -6 15 -34 22 -41 10z" style="fill: rgb(158, 163, 168);"/>
    <path d="M792 748 c-37 -37 12 -113 57 -88 35 18 45 48 26 76 -17 26 -62 33 -83 12z" style="fill: rgb(158, 163, 168);"/>
    <path d="M922 603 c2 -10 10 -18 18 -18 8 0 16 8 18 18 2 12 -3 17 -18 17 -15 0 -20 -5 -18 -17z" style="fill: rgb(158, 163, 168);"/>
  </g>
</svg>